<?xml version="1.0" encoding="UTF-8" standalone="no"?>
<!-- Created with Inkscape (http://www.inkscape.org/) -->

<svg
   xmlns:dc="http://purl.org/dc/elements/1.1/"
   xmlns:cc="http://creativecommons.org/ns#"
   xmlns:rdf="http://www.w3.org/1999/02/22-rdf-syntax-ns#"
   xmlns:svg="http://www.w3.org/2000/svg"
   xmlns="http://www.w3.org/2000/svg"
   xmlns:sodipodi="http://sodipodi.sourceforge.net/DTD/sodipodi-0.dtd"
   xmlns:inkscape="http://www.inkscape.org/namespaces/inkscape"
   width="210mm"
   height="297mm"
   viewBox="0 0 210 297"
   version="1.1"
   id="svg4673"
   inkscape:version="0.92.4 (5da689c313, 2019-01-14)"
   sodipodi:docname="business.svg">
  <defs
     id="defs4667" />
  <sodipodi:namedview
     id="base"
     pagecolor="#ffffff"
     bordercolor="#666666"
     borderopacity="1.0"
     inkscape:pageopacity="0.0"
     inkscape:pageshadow="2"
     inkscape:zoom="0.35"
     inkscape:cx="400"
     inkscape:cy="560"
     inkscape:document-units="mm"
     inkscape:current-layer="layer1"
     showgrid="false"
     inkscape:window-width="1366"
     inkscape:window-height="745"
     inkscape:window-x="-8"
     inkscape:window-y="-8"
     inkscape:window-maximized="1" />
  <metadata
     id="metadata4670">
    <rdf:RDF>
      <cc:Work
         rdf:about="">
        <dc:format>image/svg+xml</dc:format>
        <dc:type
           rdf:resource="http://purl.org/dc/dcmitype/StillImage" />
        <dc:title></dc:title>
      </cc:Work>
    </rdf:RDF>
  </metadata>
  <g
     inkscape:label="Layer 1"
     inkscape:groupmode="layer"
     id="layer1">
    <g
       id="g4681"
       transform="matrix(2.1166667,0,0,2.1166667,53.217988,87.147618)"
       style="fill:#fef3f9;fill-opacity:1">
      <path
         id="path4675"
         d="M 59.131,24.553 C 61.518,23.359 63,20.96 63,18.292 V 13 C 63,9.284 60.089,6.234 56.427,6.013 L 54.05,3.636 C 52.351,1.936 50.09,1 47.687,1 H 43.079 C 39.175,1 36,4.175 36,8.079 c 0,2.162 0.968,4.176 2.657,5.527 l 1.701,1.361 C 40.007,17.884 40,19.883 40,20 v 1 h 2 v 0.697 c 0,1.777 0.883,3.426 2.361,4.412 0.875,0.583 1.892,0.891 2.942,0.891 h 0.271 c 0.143,0 0.284,-0.031 0.426,-0.042 v 3.622 l -1.858,0.372 c -0.436,0.087 -0.836,0.322 -1.125,0.66 l -1.201,1.401 c -1.245,1.452 -2.253,3.069 -3.029,4.787 L 35,43.586 V 39.815 C 35,35.831 33.28,32.042 30.282,29.419 27.764,27.214 24.533,26 21.185,26 H 21 v -1.034 c 2.32,-0.171 4.337,-1.615 5.211,-3.802 C 26.735,19.856 27,18.479 27,17.07 V 13 C 27,12.293 26.849,11.623 26.583,11.013 28.109,9.569 29,7.534 29,5.414 29,4.235 28.541,3.126 27.707,2.293 26.874,1.459 25.765,1 24.586,1 h -8.05 C 13.989,1 11.59,1.997 9.716,3.871 8.015,5.571 7,8.236 7,11 c 0,3.581 2.104,5.735 3.025,6.508 0.117,1.365 0.702,2.634 1.682,3.614 L 12,21.414 v 4.598 C 9.74,26.071 7.578,26.787 5.733,28.105 2.769,30.222 1,33.659 1,37.301 V 46 c 0,3.409 1.559,6.46 4,8.479 V 63 h 24 v -6 h 2.687 c 2.404,0 4.664,-0.936 6.364,-2.636 l 0.95,-0.95 V 63 h 24 V 37.854 c 0,-1.368 -0.323,-2.737 -0.935,-3.959 -0.852,-1.702 -2.258,-3.108 -3.96,-3.96 L 57,29.382 V 25.618 Z M 39.906,12.044 C 38.695,11.075 38,9.629 38,8.079 38,5.278 40.278,3 43.079,3 h 4.608 c 1.87,0 3.627,0.728 4.95,2.05 L 55.586,8 H 56 c 2.757,0 5,2.243 5,5 v 5.292 c 0,1.906 -1.059,3.62 -2.764,4.472 L 56.24,23.762 C 55.753,23.141 55.403,22.442 55.223,21.705 55.125,21.304 55.058,20.908 55.025,20.535 55.779,19.99 57,18.828 57,17 57,14.794 55.206,13 53,13 H 52.864 C 52.667,12.307 52.258,11.684 51.64,11.139 50.533,10.164 48.655,9 46,9 c -2.21,0 -4.357,1.061 -4.447,1.105 l -0.438,0.219 -0.096,0.479 c -0.128,0.64 -0.239,1.262 -0.337,1.862 z M 48.382,34 h -1.386 l 0.003,-1.18 2.193,-0.438 z M 47.285,45.454 46.031,43.197 46.888,36 h 1.31 l 1.429,6.43 c -0.676,1.082 -1.457,2.095 -2.342,3.024 z m 3.772,-5.805 -1.004,-4.519 1.623,-3.245 1.852,-0.37 -1.73,6.054 c -0.204,0.713 -0.46,1.403 -0.741,2.08 z M 50,26.62 53.196,25.981 52.803,24.02 48.221,24.937 C 48.009,24.979 47.792,25 47.574,25 H 47.303 C 46.649,25 46.015,24.808 45.471,24.445 44.55,23.832 44,22.804 44,21.697 V 19 h -1.971 c 0.062,-1.398 0.253,-4.125 0.853,-7.297 C 43.524,11.44 44.781,11 46,11 c 2.031,0 3.469,0.892 4.318,1.64 C 50.79,13.056 51,13.475 51,14 v 1 h 2 c 1.103,0 2,0.897 2,2 0,1.342 -1.438,2.101 -1.447,2.105 L 53,19.382 V 20 c 0,0.683 0.094,1.416 0.28,2.178 0.288,1.18 0.879,2.285 1.72,3.22 v 3.782 l -5,1 z m -5,8.121 v 0.2 L 44.372,40.212 43.021,37.78 C 43.574,36.707 44.235,35.69 45,34.741 Z m -12,5.074 v 5.771 l -0.535,0.535 C 31.906,46.68 31.132,47 30.342,47 H 29 v -6 h -2 v 6 h -0.994 c -0.002,0 -0.003,0 -0.005,0 C 26,47 26,47 26,47 h -7 v -2.802 l 6.356,-15.437 c 1.312,0.495 2.536,1.223 3.609,2.162 2.564,2.244 4.035,5.485 4.035,8.892 z m -4,12.293 c 0.001,0.769 -0.299,1.495 -0.847,2.043 C 27.609,54.696 26.89,54.996 26.127,55 H 25 v 10e-4 H 23 V 49 h 2 1.006 c 1.648,0.003 2.991,1.354 2.994,3.108 z M 19.382,28 l -1,2 h -1.764 l -1,-2 z m 1.282,6.902 -0.624,-3.746 1.569,-3.137 c 0.61,0.022 1.215,0.084 1.808,0.198 z M 13.382,28 l 1.578,3.156 -0.497,2.98 -2.862,-6.082 C 11.835,28.036 12.065,28 12.301,28 Z m 3.465,4 h 1.305 l 1.068,6.408 -1.282,3.114 -1.978,-4.204 z M 25,17.07 c 0,1.153 -0.217,2.281 -0.646,3.351 -0.626,1.567 -2.122,2.58 -3.81,2.58 -0.813,0 -1.6,-0.238 -2.276,-0.689 l -1.714,-1.143 -1.109,1.664 1.714,1.143 c 0.568,0.378 1.191,0.644 1.84,0.814 V 26 h -5 V 20.586 L 13.12,19.707 C 12.398,18.984 12,18.022 12,17 c 0,-0.551 0.449,-1 1,-1 h 1 v -3 c 0,-1.654 1.346,-3 3,-3 h 5 c 1.654,0 3,1.346 3,3 z M 10.572,15.242 C 9.852,14.401 9,12.989 9,11 9,8.755 9.796,6.618 11.194,5.22 12.626,3.789 14.523,3 16.536,3 h 8.05 c 0.635,0 1.258,0.258 1.707,0.707 C 26.742,4.156 27,4.779 27,5.414 27,6.89 26.411,8.305 25.402,9.358 24.508,8.522 23.317,8 22,8 h -5 c -2.757,0 -5,2.243 -5,5 v 1.171 c -0.578,0.205 -1.074,0.583 -1.428,1.071 z M 3,46 V 37.301 C 3,34.303 4.456,31.474 6.895,29.732 7.717,29.145 8.616,28.709 9.562,28.417 L 17,44.224 V 47 H 11 V 41 H 9 v 6 c 0,1.103 0.895,2 1.994,2 H 21 v 6.001 L 12,55 C 7.038,55 3,50.963 3,46 Z M 27,61 H 7 V 55.786 C 8.502,56.557 10.199,57 12,57 l 14.111,10e-4 h 10e-4 c 0.005,0 0.01,-10e-4 0.015,-10e-4 H 27 Z m 9.636,-8.05 C 35.314,54.272 33.556,55 31.686,55 H 30.03 C 30.652,54.159 31.002,53.145 31,52.011 30.998,50.877 30.605,49.841 29.968,49 h 0.374 c 1.317,0 2.606,-0.534 3.538,-1.465 l 5.551,-5.551 C 39.156,43.308 39,44.66 39,46.028 v 4.558 z M 41,46.028 c 0,-2.037 0.357,-4.039 1.019,-5.934 l 3.763,6.773 c -0.137,0.116 -0.266,0.239 -0.407,0.352 L 45,47.52 V 61 H 41 Z M 57.211,31.724 c 1.318,0.659 2.406,1.748 3.065,3.065 C 60.75,35.735 61,36.795 61,37.854 V 61 H 55 V 45 H 53 V 61 H 47 V 48.474 c 3.238,-2.712 5.557,-6.283 6.721,-10.355 l 2.013,-7.045 0.126,-0.025 z"
         inkscape:connector-curvature="0"
         style="fill:#fef3f9;fill-opacity:1" />
      <circle
         id="circle4677"
         r="1"
         cy="56"
         cx="50"
         style="fill:#fef3f9;fill-opacity:1" />
      <circle
         id="circle4679"
         r="1"
         cy="52"
         cx="50"
         style="fill:#fef3f9;fill-opacity:1" />
    </g>
  </g>
</svg>
