<?xml version="1.0" encoding="UTF-8" standalone="no"?>
<!-- Created with Inkscape (http://www.inkscape.org/) -->

<svg
   xmlns:dc="http://purl.org/dc/elements/1.1/"
   xmlns:cc="http://creativecommons.org/ns#"
   xmlns:rdf="http://www.w3.org/1999/02/22-rdf-syntax-ns#"
   xmlns:svg="http://www.w3.org/2000/svg"
   xmlns="http://www.w3.org/2000/svg"
   xmlns:sodipodi="http://sodipodi.sourceforge.net/DTD/sodipodi-0.dtd"
   xmlns:inkscape="http://www.inkscape.org/namespaces/inkscape"
   width="210mm"
   height="297mm"
   viewBox="0 0 210 297"
   version="1.1"
   id="svg4593"
   inkscape:version="0.92.4 (5da689c313, 2019-01-14)"
   sodipodi:docname="coach.svg">
  <defs
     id="defs4587" />
  <sodipodi:namedview
     id="base"
     pagecolor="#ffffff"
     bordercolor="#666666"
     borderopacity="1.0"
     inkscape:pageopacity="0.0"
     inkscape:pageshadow="2"
     inkscape:zoom="0.35"
     inkscape:cx="400"
     inkscape:cy="560"
     inkscape:document-units="mm"
     inkscape:current-layer="layer1"
     showgrid="false"
     inkscape:window-width="1366"
     inkscape:window-height="745"
     inkscape:window-x="-8"
     inkscape:window-y="-8"
     inkscape:window-maximized="1" />
  <metadata
     id="metadata4590">
    <rdf:RDF>
      <cc:Work
         rdf:about="">
        <dc:format>image/svg+xml</dc:format>
        <dc:type
           rdf:resource="http://purl.org/dc/dcmitype/StillImage" />
        <dc:title></dc:title>
      </cc:Work>
    </rdf:RDF>
  </metadata>
  <g
     inkscape:label="Layer 1"
     inkscape:groupmode="layer"
     id="layer1">
    <g
       id="g4665"
       transform="matrix(0.26458333,0,0,0.26458333,58.343307,86.224073)"
       style="fill:#fef3f9;fill-opacity:1">
      <g
         id="g4599"
         style="fill:#fef3f9;fill-opacity:1">
	<g
   id="g4597"
   style="fill:#fef3f9;fill-opacity:1">
		<path
   id="path4595"
   d="m 475.323,374.462 c -7.2,-41.6 -39.2,-74.4 -80.8,-83.2 l -88.8,-19.2 c -0.8,0 -0.8,0 -1.6,0 v -50.4 c 24.8,-17.6 40,-47.2 40,-77.6 v -48 c 0,-52.8 -43.2,-96 -96,-96 -52.8,0 -96,43.2 -96,96 v 48 c 0,31.2 15.2,60 40,77.6 v 50.4 c -0.8,0 -0.8,0 -1.6,0 l -88.8,18.4 c -41.6,8.8 -73.6,41.6 -80.8,83.2 l -20.8,112.8 c -0.8,4 2.4,8.8 6.4,9.6 0.8,0 0.8,0 1.6,0 h 480 c 4.8,0 8,-3.2 8,-8 0,-0.8 0,-0.8 0,-1.6 z m -227.2,-358.4 c 38.4,0 70.4,26.4 78.4,64 h -156.8 c 8,-37.6 40,-64 78.4,-64 z m 76.8,80 -24,24 h -105.6 l -24,-24 z m -156.8,48 v -28.8 l 18.4,18.4 c 1.6,1.6 3.2,2.4 5.6,2.4 h 112 c 2.4,0 4,-0.8 5.6,-2.4 l 18.4,-18.4 v 28.8 c 0,44 -36,80 -80,80 -44,0 -80,-36 -80,-80 z m 120,87.2 v 53.6 l -5.6,5.6 c -8.8,8.8 -21.6,14.4 -33.6,14.4 h -1.6 c -12.8,0 -24.8,-4.8 -33.6,-14.4 l -5.6,-5.6 v -53.6 c 12.8,5.6 26.4,8.8 40,8.8 13.6,0 27.2,-3.2 40,-8.8 z m -112,60.8 13.6,-3.2 12,12.8 c 12,12 28,18.4 45.6,18.4 h 1.6 c 16.8,0 33.6,-6.4 45.6,-18.4 l 12.8,-12.8 13.6,3.2 v 25.6 l -42.4,56 c -14.4,-16.8 -39.2,-18.4 -56,-4 -1.6,1.6 -2.4,2.4 -4,4 l -42.4,-56 z m 72,132 c -13.6,0 -24,-10.4 -24,-24 0,-13.6 10.4,-24 24,-24 13.6,0 24,10.4 24,24 v 48 h -16 v -16 c 0,-4.8 -3.2,-8 -8,-8 z m -128,56 h -102.4 l 3.2,-16 h 99.2 z m 240,0.8 h -224 v -104.8 h -16 v 72 h -96.8 l 12.8,-71.2 c 6.4,-35.2 33.6,-63.2 68.8,-70.4 l 55.2,-12 v 25.6 c 0,1.6 0.8,3.2 1.6,4.8 l 48,64 c -0.8,3.2 -1.6,7.2 -1.6,11.2 0,19.2 13.6,35.2 32,39.2 v 16.8 c 0,4.8 3.2,8 8,8 h 32 c 4.8,0 8,-3.2 8,-8 v -56 c 0,-4 -0.8,-8 -1.6,-11.2 l 48,-64 c 0.8,-1.6 1.6,-3.2 1.6,-4.8 v -24.8 l 55.2,12 c 35.2,7.2 62.4,35.2 68.8,70.4 l 12.8,71.2 h -96.8 v -72 h -16 z m 16,-0.8 v -16 h 99.2 l 3.2,16 z"
   inkscape:connector-curvature="0"
   style="fill:#fef3f9;fill-opacity:1" />

	</g>

</g>
      <g
         id="g4605"
         style="fill:#fef3f9;fill-opacity:1">
	<g
   id="g4603"
   style="fill:#fef3f9;fill-opacity:1">
		<rect
   id="rect4601"
   height="16"
   width="16"
   y="392.06201"
   x="240.123"
   style="fill:#fef3f9;fill-opacity:1" />

	</g>

</g>
      <g
         id="g4607"
         style="fill:#fef3f9;fill-opacity:1">
</g>
      <g
         id="g4609"
         style="fill:#fef3f9;fill-opacity:1">
</g>
      <g
         id="g4611"
         style="fill:#fef3f9;fill-opacity:1">
</g>
      <g
         id="g4613"
         style="fill:#fef3f9;fill-opacity:1">
</g>
      <g
         id="g4615"
         style="fill:#fef3f9;fill-opacity:1">
</g>
      <g
         id="g4617"
         style="fill:#fef3f9;fill-opacity:1">
</g>
      <g
         id="g4619"
         style="fill:#fef3f9;fill-opacity:1">
</g>
      <g
         id="g4621"
         style="fill:#fef3f9;fill-opacity:1">
</g>
      <g
         id="g4623"
         style="fill:#fef3f9;fill-opacity:1">
</g>
      <g
         id="g4625"
         style="fill:#fef3f9;fill-opacity:1">
</g>
      <g
         id="g4627"
         style="fill:#fef3f9;fill-opacity:1">
</g>
      <g
         id="g4629"
         style="fill:#fef3f9;fill-opacity:1">
</g>
      <g
         id="g4631"
         style="fill:#fef3f9;fill-opacity:1">
</g>
      <g
         id="g4633"
         style="fill:#fef3f9;fill-opacity:1">
</g>
      <g
         id="g4635"
         style="fill:#fef3f9;fill-opacity:1">
</g>
    </g>
  </g>
</svg>
