<?xml version="1.0" encoding="UTF-8" standalone="no"?>
<!-- Created with Inkscape (http://www.inkscape.org/) -->

<svg
   xmlns:dc="http://purl.org/dc/elements/1.1/"
   xmlns:cc="http://creativecommons.org/ns#"
   xmlns:rdf="http://www.w3.org/1999/02/22-rdf-syntax-ns#"
   xmlns:svg="http://www.w3.org/2000/svg"
   xmlns="http://www.w3.org/2000/svg"
   xmlns:sodipodi="http://sodipodi.sourceforge.net/DTD/sodipodi-0.dtd"
   xmlns:inkscape="http://www.inkscape.org/namespaces/inkscape"
   width="210mm"
   height="297mm"
   viewBox="0 0 210 297"
   version="1.1"
   id="svg4542"
   inkscape:version="0.92.4 (5da689c313, 2019-01-14)"
   sodipodi:docname="credit-card.svg">
  <defs
     id="defs4536" />
  <sodipodi:namedview
     id="base"
     pagecolor="#ffffff"
     bordercolor="#666666"
     borderopacity="1.0"
     inkscape:pageopacity="0.0"
     inkscape:pageshadow="2"
     inkscape:zoom="0.35"
     inkscape:cx="400"
     inkscape:cy="560"
     inkscape:document-units="mm"
     inkscape:current-layer="layer1"
     showgrid="false"
     inkscape:window-width="1366"
     inkscape:window-height="745"
     inkscape:window-x="-8"
     inkscape:window-y="-8"
     inkscape:window-maximized="1" />
  <metadata
     id="metadata4539">
    <rdf:RDF>
      <cc:Work
         rdf:about="">
        <dc:format>image/svg+xml</dc:format>
        <dc:type
           rdf:resource="http://purl.org/dc/dcmitype/StillImage" />
        <dc:title></dc:title>
      </cc:Work>
    </rdf:RDF>
  </metadata>
  <g
     inkscape:label="Layer 1"
     inkscape:groupmode="layer"
     id="layer1">
    <g
       id="g4585"
       transform="matrix(2.1166667,0,0,2.1166667,32.808332,75.05238)"
       style="fill:#fef3f9;fill-opacity:1">
      <path
         id="path4544"
         d="M 59,13 H 38 V 5 A 3,3 0 0 0 35,2 H 5 A 3,3 0 0 0 2,5 v 54 a 3,3 0 0 0 3,3 h 30 a 3,3 0 0 0 3,-3 v -4 h 15 a 3,3 0 0 0 3,-3 v -9 h 3 a 3,3 0 0 0 3,-3 V 16 A 3,3 0 0 0 59,13 Z M 10,4 H 30 V 5 A 1,1 0 0 1 29,6 H 11 A 1,1 0 0 1 10,5 Z m 26,55 a 1,1 0 0 1 -1,1 H 5 A 1,1 0 0 1 4,59 V 5 A 1,1 0 0 1 5,4 h 3 v 1 a 3,3 0 0 0 3,3 H 29 A 3,3 0 0 0 32,5 V 4 h 3 a 1,1 0 0 1 1,1 v 8 H 15 a 3,3 0 0 0 -3,3 v 9 H 9 a 3,3 0 0 0 -3,3 v 24 a 3,3 0 0 0 3,3 H 36 Z M 12,37 H 8 v -4 h 4 z m 0,-6 H 8 v -3 a 1,1 0 0 1 1,-1 h 3 z m 42,21 a 1,1 0 0 1 -1,1 H 9 A 1,1 0 0 1 8,52 V 39 h 4 v 1 a 3,3 0 0 0 3,3 h 39 z m 6,-12 a 1,1 0 0 1 -1,1 H 15 A 1,1 0 0 1 14,40 V 16 a 1,1 0 0 1 1,-1 h 44 a 1,1 0 0 1 1,1 z"
         inkscape:connector-curvature="0"
         style="fill:#fef3f9;fill-opacity:1" />
      <path
         id="path4546"
         d="M 29,17 H 17 a 1,1 0 0 0 -1,1 v 8 a 1,1 0 0 0 1,1 h 12 a 1,1 0 0 0 1,-1 v -8 a 1,1 0 0 0 -1,-1 z m -1,8 H 18 v -6 h 10 z"
         inkscape:connector-curvature="0"
         style="fill:#fef3f9;fill-opacity:1" />
      <path
         id="path4548"
         d="m 33,23 h 10 a 1,1 0 0 0 1,-1 V 18 A 1,1 0 0 0 43,17 H 33 a 1,1 0 0 0 -1,1 v 4 a 1,1 0 0 0 1,1 z m 1,-4 h 8 v 2 h -8 z"
         inkscape:connector-curvature="0"
         style="fill:#fef3f9;fill-opacity:1" />
      <path
         id="path4550"
         d="m 47,23 h 10 a 1,1 0 0 0 1,-1 V 18 A 1,1 0 0 0 57,17 H 47 a 1,1 0 0 0 -1,1 v 4 a 1,1 0 0 0 1,1 z m 1,-4 h 8 v 2 h -8 z"
         inkscape:connector-curvature="0"
         style="fill:#fef3f9;fill-opacity:1" />
      <path
         id="path4552"
         d="m 32,25 h 12 v 2 H 32 Z"
         inkscape:connector-curvature="0"
         style="fill:#fef3f9;fill-opacity:1" />
      <path
         id="path4554"
         d="m 10,46 v 4 a 1,1 0 0 0 1,1 h 11 a 1,1 0 0 0 1,-1 V 46 A 1,1 0 0 0 22,45 H 11 a 1,1 0 0 0 -1,1 z m 2,1 h 9 v 2 h -9 z"
         inkscape:connector-curvature="0"
         style="fill:#fef3f9;fill-opacity:1" />
      <path
         id="path4556"
         d="m 26,51 h 10 a 1,1 0 0 0 1,-1 V 46 A 1,1 0 0 0 36,45 H 26 a 1,1 0 0 0 -1,1 v 4 a 1,1 0 0 0 1,1 z m 1,-4 h 8 v 2 h -8 z"
         inkscape:connector-curvature="0"
         style="fill:#fef3f9;fill-opacity:1" />
      <path
         id="path4558"
         d="m 40,51 h 11 a 1,1 0 0 0 1,-1 V 46 A 1,1 0 0 0 51,45 H 40 a 1,1 0 0 0 -1,1 v 4 a 1,1 0 0 0 1,1 z m 1,-4 h 9 v 2 h -9 z"
         inkscape:connector-curvature="0"
         style="fill:#fef3f9;fill-opacity:1" />
      <path
         id="path4560"
         d="m 46,25 h 12 v 2 H 46 Z"
         inkscape:connector-curvature="0"
         style="fill:#fef3f9;fill-opacity:1" />
      <path
         id="path4562"
         d="m 25,31 a 3.988,3.988 0 0 0 -2.51,0.894 4,4 0 1 0 0,6.212 A 4,4 0 1 0 25,31 Z m -5,6 a 2,2 0 1 1 2,-2 2,2 0 0 1 -2,2 z m 5,0 a 1.968,1.968 0 0 1 -1.3,-0.486 3.946,3.946 0 0 0 0,-3.028 A 1.968,1.968 0 0 1 25,33 a 2,2 0 0 1 0,4 z"
         inkscape:connector-curvature="0"
         style="fill:#fef3f9;fill-opacity:1" />
      <path
         id="path4564"
         d="M 58,31 H 32 a 1,1 0 0 0 -1,1 v 6 a 1,1 0 0 0 1,1 h 26 a 1,1 0 0 0 1,-1 v -6 a 1,1 0 0 0 -1,-1 z m -1,6 H 33 v -4 h 24 z"
         inkscape:connector-curvature="0"
         style="fill:#fef3f9;fill-opacity:1" />
    </g>
  </g>
</svg>
