<?xml version="1.0" encoding="UTF-8" standalone="no"?>
<!-- Created with Inkscape (http://www.inkscape.org/) -->

<svg
   xmlns:dc="http://purl.org/dc/elements/1.1/"
   xmlns:cc="http://creativecommons.org/ns#"
   xmlns:rdf="http://www.w3.org/1999/02/22-rdf-syntax-ns#"
   xmlns:svg="http://www.w3.org/2000/svg"
   xmlns="http://www.w3.org/2000/svg"
   xmlns:sodipodi="http://sodipodi.sourceforge.net/DTD/sodipodi-0.dtd"
   xmlns:inkscape="http://www.inkscape.org/namespaces/inkscape"
   width="210mm"
   height="297mm"
   viewBox="0 0 210 297"
   version="1.1"
   id="svg4771"
   inkscape:version="0.92.4 (5da689c313, 2019-01-14)"
   sodipodi:docname="help.svg">
  <defs
     id="defs4765" />
  <sodipodi:namedview
     id="base"
     pagecolor="#ffffff"
     bordercolor="#666666"
     borderopacity="1.0"
     inkscape:pageopacity="0.0"
     inkscape:pageshadow="2"
     inkscape:zoom="0.35"
     inkscape:cx="400"
     inkscape:cy="560"
     inkscape:document-units="mm"
     inkscape:current-layer="layer1"
     showgrid="false"
     inkscape:window-width="1366"
     inkscape:window-height="745"
     inkscape:window-x="-8"
     inkscape:window-y="-8"
     inkscape:window-maximized="1" />
  <metadata
     id="metadata4768">
    <rdf:RDF>
      <cc:Work
         rdf:about="">
        <dc:format>image/svg+xml</dc:format>
        <dc:type
           rdf:resource="http://purl.org/dc/dcmitype/StillImage" />
        <dc:title></dc:title>
      </cc:Work>
    </rdf:RDF>
  </metadata>
  <g
     inkscape:label="Layer 1"
     inkscape:groupmode="layer"
     id="layer1">
    <g
       id="g4906"
       transform="matrix(0.26458333,0,0,0.26458333,48.682937,88.65926)"
       style="fill:#fef3f9;fill-opacity:1">
      <g
         id="g4777"
         style="fill:#fef3f9;fill-opacity:1">
	<g
   id="g4775"
   style="fill:#fef3f9;fill-opacity:1">
		<path
   id="path4773"
   d="M 109.834,496.21 94.779,475.004 c -3.196,-4.504 -9.439,-5.563 -13.943,-2.366 -4.503,3.197 -5.563,9.439 -2.365,13.943 l 15.055,21.207 c 1.95,2.747 5.032,4.212 8.163,4.212 2.002,0 4.023,-0.6 5.78,-1.847 4.503,-3.197 5.563,-9.439 2.365,-13.943 z"
   inkscape:connector-curvature="0"
   style="fill:#fef3f9;fill-opacity:1" />

	</g>

</g>
      <g
         id="g4783"
         style="fill:#fef3f9;fill-opacity:1">
	<g
   id="g4781"
   style="fill:#fef3f9;fill-opacity:1">
		<path
   id="path4779"
   d="m 225.206,499.946 -16.384,-78.088 c -7.967,-37.972 -30.087,-70.806 -62.283,-92.455 l -34.981,-23.522 c -14.027,-9.43 -32.881,-7.402 -44.605,4.553 V 189.938 c 0,-15.816 -10.783,-29.254 -26.223,-32.681 -9.965,-2.214 -20.243,0.184 -28.204,6.571 -7.96,6.387 -12.525,15.904 -12.525,26.11 V 344.99 c 0,20.313 6.216,39.806 17.975,56.371 l 17.833,25.121 c 1.95,2.747 5.032,4.212 8.163,4.212 2.002,0 4.023,-0.6 5.78,-1.847 4.503,-3.197 5.563,-9.439 2.365,-13.943 L 34.284,389.783 C 24.94,376.62 20.001,361.131 20.001,344.989 V 189.938 c 0,-4.108 1.838,-7.939 5.042,-10.511 3.203,-2.571 7.34,-3.536 11.354,-2.645 6.215,1.379 10.556,6.789 10.556,13.156 v 123.016 c 0,17.414 6.398,34.005 18.021,46.913 0.498,0.597 1.01,1.188 1.551,1.761 6.641,7.037 14.449,15.329 21.803,23.145 l 10.295,10.957 c 0.033,0.035 0.069,0.065 0.103,0.099 8.807,9.367 15.302,16.284 15.438,16.428 3.779,4.025 10.109,4.225 14.135,0.444 4.026,-3.781 4.225,-10.109 0.443,-14.135 -0.182,-0.194 -11.888,-12.659 -25.256,-26.868 L 80.557,347.295 c -0.058,-0.062 -0.111,-0.127 -0.169,-0.189 -5.376,-6.43 -5.309,-15.753 0.326,-22.115 4.985,-5.626 13.449,-6.706 19.686,-2.513 L 135.379,346 c 27.848,18.725 46.979,47.123 53.869,79.965 l 16.385,78.089 c 0.989,4.713 5.146,7.948 9.777,7.948 0.68,0 1.371,-0.07 2.063,-0.215 5.405,-1.134 8.867,-6.436 7.733,-11.841 z"
   inkscape:connector-curvature="0"
   style="fill:#fef3f9;fill-opacity:1" />

	</g>

</g>
      <g
         id="g4789"
         style="fill:#fef3f9;fill-opacity:1">
	<g
   id="g4787"
   style="fill:#fef3f9;fill-opacity:1">
		<path
   id="path4785"
   d="m 74.089,445.858 -0.064,-0.09 c -3.21,-4.496 -9.454,-5.54 -13.949,-2.332 -4.495,3.208 -5.539,9.453 -2.332,13.948 l 0.064,0.09 c 1.952,2.735 5.027,4.193 8.149,4.193 2.01,0 4.039,-0.604 5.8,-1.861 4.494,-3.208 5.539,-9.453 2.332,-13.948 z"
   inkscape:connector-curvature="0"
   style="fill:#fef3f9;fill-opacity:1" />

	</g>

</g>
      <g
         id="g4795"
         style="fill:#fef3f9;fill-opacity:1">
	<g
   id="g4793"
   style="fill:#fef3f9;fill-opacity:1">
		<path
   id="path4791"
   d="m 499.475,163.829 c -7.96,-6.387 -18.243,-8.781 -28.203,-6.571 -15.44,3.426 -26.224,16.865 -26.224,32.681 v 120.496 c -11.723,-11.955 -30.579,-13.983 -44.605,-4.553 l -34.981,23.521 c -32.197,21.648 -54.316,54.483 -62.283,92.455 l -16.384,78.089 c -1.134,5.405 2.328,10.706 7.733,11.84 0.692,0.145 1.384,0.215 2.063,0.215 4.632,0 8.788,-3.236 9.777,-7.949 l 16.384,-78.089 c 6.891,-32.841 26.021,-61.24 53.869,-79.964 l 34.981,-23.521 c 6.235,-4.194 14.699,-3.114 19.686,2.512 5.628,6.354 5.703,15.662 0.347,22.092 -0.064,0.07 -0.125,0.142 -0.189,0.212 0,0 -48.005,51.079 -48.186,51.271 -3.781,4.026 -3.582,10.354 0.443,14.135 4.026,3.781 10.354,3.582 14.135,-0.444 0.136,-0.144 40.998,-43.591 47.639,-50.628 0.541,-0.573 1.053,-1.164 1.551,-1.761 11.622,-12.908 18.021,-29.499 18.021,-46.913 V 189.938 c 0,-6.367 4.341,-11.777 10.557,-13.156 4.013,-0.89 8.149,0.075 11.354,2.645 3.204,2.571 5.042,6.402 5.042,10.511 V 344.99 c 0,16.142 -4.939,31.631 -14.283,44.794 l -75.551,106.427 c -3.197,4.503 -2.138,10.746 2.365,13.943 1.758,1.247 3.778,1.847 5.78,1.847 3.13,0 6.213,-1.466 8.163,-4.212 l 75.551,-106.427 c 11.759,-16.565 17.975,-36.058 17.975,-56.371 V 189.938 c -0.003,-10.206 -4.567,-19.722 -12.527,-26.109 z"
   inkscape:connector-curvature="0"
   style="fill:#fef3f9;fill-opacity:1" />

	</g>

</g>
      <g
         id="g4801"
         style="fill:#fef3f9;fill-opacity:1">
	<g
   id="g4799"
   style="fill:#fef3f9;fill-opacity:1">
		<path
   id="path4797"
   d="m 382.658,191.66 -17.791,-4.25 v -3.19 c 11.563,-8.1 19.145,-21.513 19.145,-36.671 V 124.42 c 0,-24.679 -20.077,-44.756 -44.756,-44.756 -11.075,0 -21.215,4.052 -29.038,10.74 C 301.508,69.074 280.55,54 256.126,54 231.672,54 210.692,69.113 202.002,90.484 194.167,83.748 183.99,79.662 172.87,79.662 c -24.679,0 -44.756,20.077 -44.756,44.756 v 1.537 21.592 c 0,15.158 7.582,28.571 19.145,36.671 v 3.19 l -17.791,4.25 C 108.226,196.733 93.39,215.53 93.39,237.37 v 18.676 c 0,5.523 4.478,10 10,10 h 45.952 c -0.071,1.213 -0.12,2.432 -0.12,3.661 v 35.958 c 0,5.523 4.478,10 10,10 h 60.11 c 5.522,0 10,-4.477 10,-10 0,-5.523 -4.478,-10 -10,-10 H 209 V 275 c 0,-5.523 -4.478,-10 -10,-10 -5.522,0 -10,4.477 -10,10 v 20.667 h -19.777 v -25.958 c 0,-19.287 13.1,-35.896 31.854,-40.39 l 27.442,-6.576 18.365,41.782 c 1.596,3.631 5.188,5.976 9.153,5.976 h 0.001 c 3.966,0 7.558,-2.344 9.154,-5.975 l 18.346,-41.72 27.355,6.535 c 18.772,4.485 31.883,21.096 31.883,40.397 v 25.929 H 322.999 V 275 c 0,-5.523 -4.478,-10 -10,-10 -5.522,0 -10,4.477 -10,10 v 20.667 h -11.333 c -5.522,0 -10,4.477 -10,10 0,5.523 4.478,10 10,10 h 61.111 c 5.522,0 10,-4.477 10,-10 v -35.929 c 0,-1.239 -0.05,-2.467 -0.122,-3.69 h 46.082 c 5.522,0 10,-4.477 10,-10 v -18.676 c 0,-21.84 -14.836,-40.638 -36.079,-45.712 z M 339.256,99.662 c 13.102,0 23.858,10.231 24.702,23.123 h -13.903 c -11.688,0 -23.19,-2.814 -33.529,-8.172 3.803,-8.788 12.561,-14.951 22.73,-14.951 z M 314.5,146.087 c 0.012,-0.487 0.037,-0.972 0.037,-1.462 v -8.906 c 11.221,4.644 23.288,7.066 35.518,7.066 h 13.957 v 4.763 c 0,13.65 -11.105,24.756 -24.756,24.756 -13.651,0 -24.756,-11.106 -24.756,-24.757 z M 217.716,112.41 v 0 c 0,-21.179 17.23,-38.41 38.41,-38.41 19.103,0 34.992,14.018 37.926,32.306 l -16.835,-9.891 c -4.211,-2.474 -9.593,-1.545 -12.73,2.2 -8.227,9.818 -20.292,15.449 -33.102,15.449 H 217.716 Z M 172.871,99.662 c 10.169,0 18.926,6.164 22.73,14.95 -10.34,5.358 -21.841,8.172 -33.529,8.172 h -13.903 c 0.844,-12.891 11.601,-23.122 24.702,-23.122 z m -24.756,43.122 h 13.957 c 12.243,0 24.323,-2.427 35.555,-7.081 v 11.843 c 0,13.65 -11.105,24.756 -24.756,24.756 -13.651,0 -24.756,-11.104 -24.756,-24.755 z m 48.302,67.085 c -19.674,4.714 -35.136,18.431 -42.495,36.178 H 113.39 v -8.676 c 0,-12.546 8.522,-23.345 20.725,-26.26 l 25.468,-6.084 c 4.501,-1.075 7.677,-5.098 7.677,-9.726 v -3.362 c 1.84,0.231 3.71,0.364 5.611,0.364 1.887,0 3.744,-0.131 5.57,-0.359 v 2.853 c -0.007,0.149 -0.01,0.298 -0.011,0.447 -0.002,3.281 1.611,6.495 4.573,8.411 1.116,0.723 2.322,1.193 3.553,1.428 l 14.917,3.574 z m 27.894,-15.524 c -2.569,-1.133 -5.247,-2.039 -8.007,-2.7 l -17.864,-4.281 v -3.116 c 3.224,-2.253 6.139,-4.916 8.667,-7.918 4.466,6.88 10.334,12.763 17.204,17.244 z m 43.432,14.693 -11.702,26.615 -11.729,-26.683 v -7.136 c 3.817,0.787 7.768,1.202 11.814,1.202 3.977,0 7.861,-0.403 11.617,-1.164 z m -11.617,-26.003 c -21.18,0.001 -38.41,-17.23 -38.41,-38.41 v -10.562 h 13.669 c 15.858,0 30.936,-5.897 42.492,-16.415 l 20.622,12.116 v 16.324 c -0.772,20.503 -17.683,36.947 -38.373,36.947 z m 31.617,11.342 V 193.7 c 6.926,-4.478 12.846,-10.376 17.347,-17.286 2.511,2.968 5.401,5.602 8.594,7.834 v 3.116 l -17.865,4.281 c -2.784,0.668 -5.485,1.585 -8.076,2.732 z m 110.993,51.67 h -40.67 C 350.7,228.3 335.227,214.591 315.541,209.888 l -5.021,-1.199 14.997,-3.594 c 1.248,-0.232 2.474,-0.708 3.605,-1.44 2.957,-1.913 4.565,-5.127 4.565,-8.408 0,-0.078 -0.001,-0.157 -0.003,-0.235 v -3.068 c 1.827,0.228 3.683,0.359 5.57,0.359 1.901,0 3.771,-0.133 5.611,-0.364 v 3.362 c 0,4.628 3.176,8.651 7.677,9.726 l 25.468,6.084 c 12.203,2.916 20.726,13.714 20.726,26.26 z"
   inkscape:connector-curvature="0"
   style="fill:#fef3f9;fill-opacity:1" />

	</g>

</g>
      <g
         id="g4807"
         style="fill:#fef3f9;fill-opacity:1">
	<g
   id="g4805"
   style="fill:#fef3f9;fill-opacity:1">
		<path
   id="path4803"
   d="m 263.069,298.59 c -1.869,-1.86 -4.439,-2.92 -7.069,-2.92 -2.641,0 -5.21,1.06 -7.07,2.92 -1.87,1.87 -2.93,4.44 -2.93,7.08 0,2.63 1.06,5.2 2.93,7.07 1.86,1.86 4.43,2.93 7.07,2.93 2.63,0 5.2,-1.07 7.069,-2.93 1.86,-1.87 2.931,-4.44 2.931,-7.07 0,-2.64 -1.07,-5.21 -2.931,-7.08 z"
   inkscape:connector-curvature="0"
   style="fill:#fef3f9;fill-opacity:1" />

	</g>

</g>
      <g
         id="g4813"
         style="fill:#fef3f9;fill-opacity:1">
	<g
   id="g4811"
   style="fill:#fef3f9;fill-opacity:1">
		<path
   id="path4809"
   d="m 255.993,0 c -5.522,0 -10,4.477 -10,10 v 14.963 c 0,5.523 4.478,10 10,10 5.522,0 10,-4.477 10,-10 V 10 c 0,-5.523 -4.477,-10 -10,-10 z"
   inkscape:connector-curvature="0"
   style="fill:#fef3f9;fill-opacity:1" />

	</g>

</g>
      <g
         id="g4819"
         style="fill:#fef3f9;fill-opacity:1">
	<g
   id="g4817"
   style="fill:#fef3f9;fill-opacity:1">
		<path
   id="path4815"
   d="m 219.157,32.619 -10.49,-10.48 c -3.907,-3.904 -10.238,-3.901 -14.142,0.006 -3.904,3.907 -3.9,10.239 0.007,14.142 l 10.491,10.48 c 1.952,1.951 4.51,2.926 7.067,2.926 2.561,0 5.121,-0.978 7.074,-2.932 3.902,-3.907 3.9,-10.239 -0.007,-14.142 z"
   inkscape:connector-curvature="0"
   style="fill:#fef3f9;fill-opacity:1" />

	</g>

</g>
      <g
         id="g4825"
         style="fill:#fef3f9;fill-opacity:1">
	<g
   id="g4823"
   style="fill:#fef3f9;fill-opacity:1">
		<path
   id="path4821"
   d="m 317.222,22.395 c -3.907,-3.903 -10.24,-3.901 -14.142,0.007 l -10.409,10.419 c -3.903,3.907 -3.9,10.239 0.007,14.142 1.953,1.951 4.51,2.926 7.068,2.926 2.561,0 5.122,-0.978 7.074,-2.933 l 10.409,-10.419 c 3.903,-3.907 3.9,-10.239 -0.007,-14.142 z"
   inkscape:connector-curvature="0"
   style="fill:#fef3f9;fill-opacity:1" />

	</g>

</g>
      <g
         id="g4827"
         style="fill:#fef3f9;fill-opacity:1">
</g>
      <g
         id="g4829"
         style="fill:#fef3f9;fill-opacity:1">
</g>
      <g
         id="g4831"
         style="fill:#fef3f9;fill-opacity:1">
</g>
      <g
         id="g4833"
         style="fill:#fef3f9;fill-opacity:1">
</g>
      <g
         id="g4835"
         style="fill:#fef3f9;fill-opacity:1">
</g>
      <g
         id="g4837"
         style="fill:#fef3f9;fill-opacity:1">
</g>
      <g
         id="g4839"
         style="fill:#fef3f9;fill-opacity:1">
</g>
      <g
         id="g4841"
         style="fill:#fef3f9;fill-opacity:1">
</g>
      <g
         id="g4843"
         style="fill:#fef3f9;fill-opacity:1">
</g>
      <g
         id="g4845"
         style="fill:#fef3f9;fill-opacity:1">
</g>
      <g
         id="g4847"
         style="fill:#fef3f9;fill-opacity:1">
</g>
      <g
         id="g4849"
         style="fill:#fef3f9;fill-opacity:1">
</g>
      <g
         id="g4851"
         style="fill:#fef3f9;fill-opacity:1">
</g>
      <g
         id="g4853"
         style="fill:#fef3f9;fill-opacity:1">
</g>
      <g
         id="g4855"
         style="fill:#fef3f9;fill-opacity:1">
</g>
    </g>
  </g>
</svg>
