<?xml version="1.0" encoding="UTF-8" standalone="no"?>
<!-- Created with Inkscape (http://www.inkscape.org/) -->

<svg
   xmlns:dc="http://purl.org/dc/elements/1.1/"
   xmlns:cc="http://creativecommons.org/ns#"
   xmlns:rdf="http://www.w3.org/1999/02/22-rdf-syntax-ns#"
   xmlns:svg="http://www.w3.org/2000/svg"
   xmlns="http://www.w3.org/2000/svg"
   xmlns:sodipodi="http://sodipodi.sourceforge.net/DTD/sodipodi-0.dtd"
   xmlns:inkscape="http://www.inkscape.org/namespaces/inkscape"
   width="210mm"
   height="297mm"
   viewBox="0 0 210 297"
   version="1.1"
   id="svg8"
   inkscape:version="0.92.4 (5da689c313, 2019-01-14)"
   sodipodi:docname="target_2.svg">
  <defs
     id="defs2" />
  <sodipodi:namedview
     id="base"
     pagecolor="#ffffff"
     bordercolor="#666666"
     borderopacity="1.0"
     inkscape:pageopacity="0.0"
     inkscape:pageshadow="2"
     inkscape:zoom="0.35"
     inkscape:cx="-64.285714"
     inkscape:cy="560"
     inkscape:document-units="mm"
     inkscape:current-layer="layer1"
     showgrid="false"
     inkscape:window-width="1366"
     inkscape:window-height="745"
     inkscape:window-x="-8"
     inkscape:window-y="-8"
     inkscape:window-maximized="1" />
  <metadata
     id="metadata5">
    <rdf:RDF>
      <cc:Work
         rdf:about="">
        <dc:format>image/svg+xml</dc:format>
        <dc:type
           rdf:resource="http://purl.org/dc/dcmitype/StillImage" />
        <dc:title></dc:title>
      </cc:Work>
    </rdf:RDF>
  </metadata>
  <g
     inkscape:label="Layer 1"
     inkscape:groupmode="layer"
     id="layer1">
    <path
       id="path3713"
       d="m 202.50166,87.76968 c -0.56802,-1.66967 -2.00663,-2.84834 -3.7547,-3.07527 l -13.28448,-1.73294 c 2.05202,-3.80421 1.47575,-8.66469 -1.73156,-11.872 -1.8966,-1.89798 -4.41761,-2.94187 -7.09954,-2.94187 -0.003,0 -0.005,0 -0.007,0 -1.57202,0.001 -3.08628,0.36309 -4.45475,1.04252 l -1.73282,-13.29136 c -0.2283,-1.749444 -1.40698,-3.188057 -3.07527,-3.756075 -1.66967,-0.566643 -3.48101,-0.145787 -4.72845,1.101653 L 143.69456,72.18287 c -1.03976,1.03976 -1.52113,2.52651 -1.28732,3.97751 l 3.06427,19.06781 -0.8761,0.87885 C 131.40446,85.93772 115.3239,80.42533 98.393365,80.42533 c -15.91139,0 -31.14336,4.87148 -44.04825,14.08906 -1.1883,0.84858 -1.46336,2.499 -0.61478,3.6873 0.84859,1.1883 2.49901,1.46337 3.68731,0.61478 12.00266,-8.57391 26.17286,-13.10568 40.97572,-13.10568 15.904525,0 30.594605,5.29096 42.408845,14.20046 l -10.72909,10.76484 c -8.99202,-6.26471 -19.91365,-9.94513 -31.679755,-9.94513 -30.63723,0 -55.56265,24.92541 -55.56265,55.56402 0,30.63724 24.92542,55.56266 55.56265,55.56266 30.637245,0 55.562665,-24.92542 55.562665,-55.56266 0,-11.63268 -3.59654,-22.43741 -9.73058,-31.37029 l 10.74421,-10.78135 c 8.79259,11.7716 14.00654,26.36266 14.00654,42.15164 0,38.91958 -31.66325,70.58283 -70.582835,70.58283 -38.91957,0 -70.58282,-31.66325 -70.58282,-70.58283 0,-17.40501 6.38849,-34.12236 17.98954,-47.07401 0.97375,-1.08652 0.8816,-2.75894 -0.20492,-3.73269 -1.0879,-0.97374 -2.75895,-0.8816 -3.7327,0.20493 -12.47165,13.92264 -19.33876,31.89293 -19.33876,50.60177 0,20.26575 7.89175,39.31843 22.22149,53.64818 14.32974,14.32974 33.38243,22.22148 53.64817,22.22148 20.265755,0 39.318435,-7.89174 53.648175,-22.22148 14.32975,-14.32975 22.22149,-33.38243 22.22149,-53.64818 0,-16.82737 -5.44775,-32.81441 -15.49741,-45.9586 l 0.67117,-0.67392 19.04718,3.06152 c 0.24206,0.0385 0.48412,0.0578 0.72618,0.0578 1.20756,0 2.38623,-0.47862 3.2527,-1.34509 l 4.06553,-4.06552 c 1.03288,-1.03289 1.03288,-2.70531 0,-3.7382 -1.03289,-1.03151 -2.70531,-1.03151 -3.7382,0 l -3.81521,3.81522 -14.862,-2.38898 17.29499,-17.29499 15.26085,1.99012 -2.2927,2.29271 c -1.03151,1.03288 -1.03151,2.70531 0,3.73819 1.03289,1.03151 2.70668,1.03151 3.73819,0 l 3.28708,-3.28708 c 1.24607,-1.24744 1.6683,-3.05877 1.10028,-4.72844 z m -37.12612,-29.79277 1.9915,15.26085 -17.29637,17.29499 -2.38898,-14.862 z m -16.70635,98.31807 c 0,27.7215 -22.55294,50.27583 -50.275825,50.27583 -27.72287,0 -50.27582,-22.55433 -50.27582,-50.27583 0,-27.72287 22.55295,-50.27581 50.27582,-50.27581 10.309615,0 19.901285,3.11928 27.886545,8.46251 l -10.97251,11.00965 c -5.0214,-2.76995 -10.78548,-4.3516 -16.914035,-4.3516 -19.38414,0 -35.15387,15.77111 -35.15387,35.15525 0,19.38277 15.76973,35.15388 35.15387,35.15388 19.384155,0 35.153885,-15.77111 35.153885,-35.15388 0,-5.96625 -1.49913,-11.58592 -4.13154,-16.51241 l 11.00965,-11.04679 c 5.20982,7.92062 8.24383,17.39126 8.24383,27.5592 z m -55.189935,5.29647 c 1.8966,1.8966 4.41899,2.94049 7.100925,2.94049 h 0.007 c 2.68467,-0.001 5.20706,-1.04939 7.10366,-2.9515 l 3.74645,-3.75882 c -0.75919,6.52602 -6.31834,11.60793 -13.043795,11.60793 -7.24258,0 -13.13457,-5.89199 -13.13457,-13.13457 0,-7.00326 5.50689,-12.74259 12.41801,-13.11531 l -4.20719,4.22095 c -3.90323,3.91561 -3.89911,10.28071 0.01,14.19083 z m -13.50729,-5.29647 c 0,10.15694 8.26446,18.42141 18.4214,18.42141 10.156945,0 18.421415,-8.26309 18.421415,-18.42141 0,-1.20618 -0.12103,-2.3821 -0.34384,-3.52364 l 9.01127,-9.04153 c 1.78108,3.82209 2.77958,8.07879 2.77958,12.56517 0,16.46841 -13.39863,29.86705 -29.868425,29.86705 -16.46978,0 -29.86704,-13.39864 -29.86704,-29.86705 0,-16.46978 13.39726,-29.86841 29.86704,-29.86841 4.659685,0 9.070425,1.0769 13.003915,2.98863 l -8.89712,8.926 c -1.32033,-0.30395 -2.694305,-0.46762 -4.106795,-0.46762 -10.15694,0 -18.4214,8.26309 -18.4214,18.4214 z m 23.975065,1.55277 c -0.89811,0.90085 -2.09328,1.39735 -3.3641,1.39735 -0.001,0 -0.003,0 -0.003,0 -1.270825,0 -2.464635,-0.49375 -3.362735,-1.39185 -1.84984,-1.85121 -1.85259,-4.8646 -0.004,-6.71857 L 173.26443,74.83179 c 0.8981,-0.90085 2.0919,-1.39735 3.36272,-1.39873 h 0.004 c 1.26944,0 2.46325,0.49513 3.36135,1.39323 1.85121,1.85122 1.85397,4.8646 0.004,6.71857 z m 0,0"
       inkscape:connector-curvature="0"
       style="stroke-width:0.3520889;fill:#fef3fa;fill-opacity:1" />
  </g>
</svg>
